<svg version="1.2" xmlns="http://www.w3.org/2000/svg" fill="#fff" viewBox="0 0 128 128" width="128" height="128"><style>.a{opacity:.99}.b{opacity:.2}.c{opacity:.18}.d{opacity:.63}.e{opacity:.62}.f{opacity:.8}.g{opacity:.19}.h{opacity:.55}.i{opacity:.96}.j{opacity:.77}</style><path fill-rule="evenodd" class="a" d="m15.2 21.6c1.4-1.7 4.5-4.4 11.1-9l1.7 6.9c1 4.6 3.3 9.6 6.5 14.4 2.6 4.1 6.9 9.6 9.5 12.3 3.5 3.8 7.7 6.8 17.9 13 10.1 6.1 14.8 8.4 19.7 9.8 3.6 1 10.5 2.2 15.3 2.7 5.8 0.5 11.3 0.2 22.7-2.7l-0.7 5.7q-0.6 5.8-3.5 10.5c-1.8 3-4.4 5.8-7.3 7.8-2.5 1.7-6.2 3.7-8.3 4.4-2 0.7-6.6 1.5-10.1 1.9-3.5 0.4-9 0.3-12.3-0.1-3.3-0.4-9.8-1.9-14.4-3.4-5.8-1.8-11.2-4.3-17.7-8.3-6-3.6-11.6-7.7-15.4-11.3-3.2-3.1-7.6-8-9.7-10.9-2.1-2.9-4.8-7.3-5.9-9.7-1.1-2.4-2.5-6.8-3.2-9.7-0.7-2.9-1.2-7.2-1-9.5 0.2-2.3 0.8-5.9 1.4-7.9 0.7-2 2.3-5.1 3.7-6.9zm0.6 19.1c0.1 2.6 1.4 7.5 2.9 10.7 1.5 3.3 4.2 7.9 5.9 10.4 1.8 2.4 5.8 7 9 10.2 3.7 3.6 8.9 7.6 14 10.7 5.3 3.2 11.1 5.9 16.5 7.6 4.5 1.4 11.3 2.9 14.9 3.3 3.7 0.3 9.2 0.4 12.2 0.1 3.8-0.4 7.6-1.8 11.8-4.4 3.3-2.1 6.9-5.1 7.8-6.6 0.9-1.6 1.8-3.5 2-4.4 0.3-1.2-1-1.4-5.6-0.8-3.3 0.3-8.9 0.3-12.6-0.1-3.6-0.4-9.2-1.5-12.5-2.4-3.3-1-9.9-3.7-14.8-6-5.7-2.8-11.6-6.3-16.7-10.1-4.3-3.3-9.8-7.9-12.1-10.3-2.4-2.5-6-7-8-10-2.1-3-4.7-8-5.9-11.1-1.7-4.4-2.4-5.4-3.4-4.6-0.6 0.6-1.9 2.3-2.8 3.9-0.9 1.5-1.9 4.2-2.2 5.9-0.4 1.8-0.6 5.3-0.4 8z"/><path class="b" d="m56.4 56.6c0.7 0.4 1.2 0.3 1.1-0.3-0.2-0.6-0.8-0.9-1.3-0.8-0.6 0.2-0.5 0.6 0.2 1.1z"/><path class="c" d="m27.3 16.3q0.6 1.4 0.6-0.1c0-0.8-0.1-1.6-0.4-1.7-0.2-0.2-0.5-0.1-0.6 0.1-0.2 0.2 0 1 0.4 1.7zm88.8 53.6c0.6 0 1.3-0.1 1.4-0.4 0.2-0.2-0.2-0.5-0.8-0.5-0.6-0.1-1.3 0.1-1.4 0.4-0.2 0.3 0.2 0.5 0.8 0.5z"/><path class="d" d="m15.7 46.1c0.7 1.9 0.8 1.9 0.5-0.3-0.2-1.2-0.5-2.3-0.6-2.4-0.2 0-0.4 0.1-0.5 0.3-0.1 0.1 0.2 1.2 0.6 2.4zm2 5.3q0.7 1.4 0.7-0.1c0-0.8-0.2-1.6-0.4-1.7-0.3-0.1-0.6-0.1-0.7 0.1-0.1 0.2 0.1 1 0.4 1.7zm71.7 43.3c0.7 0 1.3-0.2 1.5-0.4 0.1-0.2-0.3-0.5-0.9-0.5-0.6-0.1-1.3 0.1-1.4 0.4-0.2 0.3 0.2 0.5 0.8 0.5zm4.1-0.5c0.1 0.1 1.2-0.2 2.4-0.6 2.1-0.7 2.1-0.7 0.2-0.8-1.1 0-2.2 0.3-2.4 0.6-0.2 0.4-0.3 0.7-0.2 0.8z"/><path class="e" d="m23.5 24.5l1 2.7c-0.8-4.6-1.2-6-1.3-6-0.1-0.1-0.3 0-0.4 0.2-0.1 0.1 0.2 1.5 0.7 3.1zm87.1 52.5c1.6-0.3 3-0.8 3.1-1 0.1-0.3-0.9-0.3-2.3-0.2-1.4 0.2-2.8 0.7-3.1 1.1-0.2 0.4 0.8 0.5 2.3 0.1z"/><path class="a" d="m23 8l1-1h2l1 1v1 1 1l1 1v3l-1 1v1 1 1l-1 1h-2l-1-1v-1-1-1l-1-1v-3l1-1v-1-1z"/><path class="f" d="m24 7v-1h2v1zm-1 0h1v1h-1zm3 0h1v1h-1zm-4 9h1v1h-1zm2 5v-1h2v1z"/><path class="g" d="m23 6h1v1h-1zm3 0h1v1h-1zm-4 2h1v1h-1zm5 0h1v1h-1zm-5 10h1v1h-1zm5 0h1v1h-1zm-4 2h1v1h-1zm3 0h1v1h-1z"/><path class="h" d="m22 9h1v1h-1zm5 0h1v1h-1zm-5 8h1v1h-1zm5 0h1v1h-1z"/><path class="i" d="m22 11h1v1h-1zm5 0h1v1h-1z"/><path class="j" d="m22 10h1v1h-1zm5 0h1v1h-1zm0 6h1v1h-1z"/><path class="f" d="m23 19h1v1h-1zm3 0h1v1h-1z"/><path class="i" d="m22 15h1v1h-1zm5 0h1v1h-1z"/></svg>
