<svg version="1.2" xmlns="http://www.w3.org/2000/svg" fill="#fff" viewBox="0 0 128 128" width="128" height="128"><style></style><path fill-rule="evenodd" d="m46.4 11h53.6v101l-9.5 7.9-52.5 0.1-0.4-100.4zm21.1 8c13.3 0 21.6-0.4 22-1 0.3-0.7-7-1-21-1-13.3 0-21.7 0.4-22 1-0.4 0.6 6.9 1 21 1zm22.3 50.6l0.1 43.9c4-4 4-5.1 3.8-47.9-0.2-43.3-0.3-43.8-2.2-41.9-1.8 1.9-1.9 3.7-1.7 45.9zm-45.8 44.4h40v-89h-40z"/><path  d="m48.6 58h-1.9v-13.7h3l3.1 8.9q0.1 0.3 0.2 0.8 0.2 0.4 0.3 0.8 0.1 0.4 0.1 0.6h0.2q0-0.3 0.1-0.6 0.1-0.4 0.2-0.9 0.2-0.4 0.3-0.7l3.1-8.9h2.9v13.7h-1.9v-8q0-0.7 0-1.4 0.1-0.7 0.1-1.3 0-0.6 0-0.9h-0.2q0 0.3-0.2 0.7-0.1 0.5-0.3 1-0.1 0.5-0.2 0.9l-3.2 9h-1.7l-3.2-9q-0.1-0.3-0.3-0.8-0.1-0.4-0.2-0.9-0.1-0.5-0.3-0.9h-0.1q0 0.4 0 1.1 0 0.6 0 1.3 0.1 0.6 0.1 1.2zm16.5-12.5h-1.7v-2h1.7zm0 12.5h-1.7v-10.5h1.7zm4 0h-1.7v-14.5h1.7zm5 0h-1.7v-14.4h1.7v9l4.5-5.1h2.1l-3.6 4.1 3.8 6.4h-2l-3-5.1-1.8 1.8z"/></svg>
